<svg width="17" height="17" viewBox="0 0 12 20" fill="current" xmlns="http://www.w3.org/2000/svg">
<path d="M9.1248 19.1004L0.699805 10.7004C0.599805 10.6004 0.529138 10.4921 0.487805 10.3754C0.445805 10.2587 0.424805 10.1337 0.424805 10.0004C0.424805 9.86706 0.445805 9.74206 0.487805 9.62539C0.529138 9.50872 0.599805 9.40039 0.699805 9.30039L9.1248 0.875391C9.35814 0.642057 9.6498 0.525391 9.9998 0.525391C10.3498 0.525391 10.6498 0.650391 10.8998 0.900391C11.1498 1.15039 11.2748 1.44206 11.2748 1.77539C11.2748 2.10872 11.1498 2.40039 10.8998 2.65039L3.5498 10.0004L10.8998 17.3504C11.1331 17.5837 11.2498 17.8711 11.2498 18.2124C11.2498 18.5544 11.1248 18.8504 10.8748 19.1004C10.6248 19.3504 10.3331 19.4754 9.9998 19.4754C9.66647 19.4754 9.3748 19.3504 9.1248 19.1004Z" fill="current"/>
</svg>
