<svg width="17" height="17" viewBox="0 0 12 20" fill="current" xmlns="http://www.w3.org/2000/svg">
<path d="M2.8752 19.1004L11.3002 10.7004C11.4002 10.6004 11.4709 10.4921 11.5122 10.3754C11.5542 10.2587 11.5752 10.1337 11.5752 10.0004C11.5752 9.86706 11.5542 9.74206 11.5122 9.62539C11.4709 9.50872 11.4002 9.40039 11.3002 9.30039L2.8752 0.875391C2.64186 0.642057 2.3502 0.525391 2.0002 0.525391C1.6502 0.525391 1.3502 0.650391 1.1002 0.900391C0.850196 1.15039 0.725196 1.44206 0.725196 1.77539C0.725196 2.10872 0.850196 2.40039 1.1002 2.65039L8.4502 10.0004L1.1002 17.3504C0.866862 17.5837 0.750196 17.8711 0.750196 18.2124C0.750196 18.5544 0.875196 18.8504 1.1252 19.1004C1.3752 19.3504 1.66686 19.4754 2.0002 19.4754C2.33353 19.4754 2.6252 19.3504 2.8752 19.1004Z" fill="current"/>
</svg>
